<svg width="43" height="40" viewBox="0 0 43 40" fill="none" xmlns="http://www.w3.org/2000/svg">
<path fill-rule="evenodd" clip-rule="evenodd" d="M38.8622 8.77087C39.986 9.65059 40.863 10.8116 41.4062 12.139C41.9006 13.3216 42.1135 14.6039 42.0276 15.8849C41.9389 17.1027 41.5545 18.2797 40.9085 19.3117C40.2222 20.3867 39.2848 21.2747 38.1789 21.8975C37.7204 22.1593 37.2354 22.3577 36.7494 22.5566C36.5886 22.6223 36.4278 22.6882 36.2677 22.7563C35.6627 23.0155 35.069 23.3001 34.483 23.6012C33.1327 24.2956 31.8215 25.0677 30.5344 25.8718C29.1273 26.7499 27.7466 27.6714 26.3825 28.6145C25.3859 29.3037 21.9868 34.3105 20.2929 36.8631C28.019 36.5323 34.5594 30.9937 36.2324 23.3652C36.3372 23.318 36.4408 23.272 36.5431 23.2286C36.6539 23.1771 36.7646 23.133 36.8784 23.0877C36.9281 23.0679 36.9784 23.0479 37.0294 23.027C37.5362 22.8322 38.0299 22.604 38.5073 22.3442C38.565 22.3116 38.6207 22.2769 38.6764 22.2422C38.6949 22.2307 38.7135 22.2191 38.7321 22.2076C37.54 31.2849 30.2654 38.3061 21.2364 39.0936C12.2074 39.8812 3.84949 34.2237 1.13534 25.4871C-1.57881 16.7505 2.07988 7.28165 9.9346 2.71427C17.7893 -1.8531 27.7301 -0.292129 33.8426 6.46846H33.6897C33.1772 6.47002 32.6658 6.5127 32.16 6.59608C31.7762 6.66005 31.3965 6.74785 31.0232 6.859C26.0716 2.32553 18.9557 1.13203 12.8199 3.80591C6.68427 6.47979 2.65961 12.5283 2.52449 19.2785C4.5455 18.6289 8.05447 17.4598 8.4612 17.0361C9.33146 16.1324 10.2005 15.2237 11.0152 14.2703C11.2638 13.9928 11.4943 13.699 11.7049 13.391C11.771 13.2846 11.8244 13.1706 11.8641 13.0516C11.9912 12.7146 12.1717 12.4008 12.3984 12.1224C12.284 11.8408 12.1915 11.5506 12.1218 11.2545C12.0162 11.0372 11.9398 10.8068 11.8944 10.5692C11.7454 9.96148 11.6888 9.3345 11.7264 8.70961C11.763 8.20293 11.9184 7.42567 12.5689 7.42567C12.7863 7.45843 12.9908 7.55068 13.1601 7.69241L13.1912 7.71461C13.8229 8.16563 14.4658 8.62471 14.9878 9.20605H15.0484L15.056 9.2176L17.1452 8.99168C17.2377 8.9817 17.3302 8.97146 17.4229 8.96122C18.1967 8.87556 18.9789 8.789 19.7561 8.85507C20.1362 8.88771 20.5112 8.96434 20.874 9.08359C21.2504 9.20605 21.6331 9.31202 22.0196 9.39751C22.754 9.56181 23.5045 9.64105 24.2566 9.63367C25.7024 9.60486 27.1155 9.19434 28.3555 8.44287C28.5245 8.36888 28.693 8.29379 28.8615 8.2187C29.0999 8.11245 29.3384 8.0062 29.5782 7.903C30.4049 7.53179 31.2738 7.26475 32.1651 7.10788C33.0262 6.96597 33.9034 6.95222 34.7684 7.06703C36.257 7.26375 37.6684 7.85121 38.8622 8.77087ZM20.6003 14.657C21.2022 15.0397 21.9673 15.0108 22.5408 14.5838L22.5421 14.5813C23.0947 14.1496 23.3103 13.3952 23.0737 12.7219C22.8178 12.0332 22.1844 11.5733 21.4714 11.5588C20.7916 11.5423 20.1711 11.9571 19.9063 12.6053C19.9807 12.4001 20.0402 12.227 19.8927 12.6373C19.7796 12.9518 19.7897 12.9243 19.834 12.8025C19.8475 12.7653 19.8642 12.7195 19.8815 12.6719C19.8566 12.7447 19.8368 12.8193 19.822 12.8951C19.7056 13.5922 20.0146 14.2919 20.6003 14.657Z" fill="#425B66"/>
</svg>